<?xml version="1.0" encoding="UTF-8"?>
<svg id="Calque_2" xmlns="http://www.w3.org/2000/svg" viewBox="0 0 53.8 36.24">
  <g id="Calque_1-2" data-name="Calque_1">
    <path d="M34.12,4.71c.05,2.69-2.12,4.89-4.8,4.89h-14.8c-.83,0-1.4.84-1.09,1.61l1.95,4.8h0c.3.62.44,1.33.35,2.08-.21,1.65-1.55,2.99-3.2,3.19-1.32.16-2.52-.39-3.28-1.3h0L1.56,11.42h0C.43,10.21-.2,8.51.06,6.67.42,4.05,2.62,1.98,5.26,1.77c2.58-.21,4.83,1.3,5.76,3.5l.09.22c.43,1.06,1.46,1.76,2.61,1.76h6.99c1.19,0,1.62-1.56.61-2.17l-.63-.38c-1.93-1.17-4.07-1.95-6.31-2.29-.7,0-1.26-.6-1.19-1.32.06-.62.63-1.07,1.26-1.07h14.72c2.64,0,4.91,2.07,4.96,4.71Z"/>
    <path d="M53.03,31.53c-.05,2.64-2.32,4.71-4.96,4.71h-14.72c-.62,0-1.19-.45-1.26-1.07-.07-.71.49-1.32,1.19-1.32,2.23-.34,4.38-1.12,6.3-2.29l.63-.39c1.01-.62.58-2.17-.61-2.17h-6.99c-1.15,0-2.18.69-2.61,1.76l-.09.22c-.92,2.2-3.18,3.7-5.76,3.5-2.64-.21-4.84-2.28-5.21-4.9-.25-1.84.37-3.54,1.51-4.74h0s7.69-8.56,7.69-8.56c.76-.92,1.96-1.46,3.28-1.3,1.65.2,2.99,1.54,3.2,3.19.09.75-.05,1.46-.35,2.08h0s-1.95,4.8-1.95,4.8c-.31.77.25,1.61,1.09,1.61h14.8c2.68,0,4.85,2.2,4.8,4.89Z"/>
    <path d="M42.37,21.66l-1.42-3.34c-.16-.38-.46-.68-.83-.86l-3.28-1.54c-1.09-.51-1.3-1.97-.39-2.76l2.74-2.38c.31-.27.51-.64.56-1.05l.45-3.6c.15-1.2,1.48-1.84,2.51-1.22l3.11,1.87c.35.21.77.29,1.17.21l3.56-.69c1.18-.23,2.21.84,1.94,2.01l-.82,3.53c-.09.4-.03.82.17,1.18l1.75,3.17c.58,1.05-.11,2.36-1.31,2.46l-3.61.32c-.41.04-.79.22-1.07.52l-2.48,2.65c-.82.88-2.28.62-2.75-.49Z"/>
  </g>
</svg>