<svg width="405" height="261" viewBox="0 0 405 261" fill="none" xmlns="http://www.w3.org/2000/svg">
<g clip-path="url(#clip0_12_50)">
<path d="M225.232 139.724C225.232 143.372 219.971 146.726 215.188 146.726C208.678 146.726 204.852 140.11 209.541 131.778C210.498 130.154 210.405 129.861 210.113 129.675C209.541 129.488 209.156 129.768 208.585 131.112C206.765 134.653 203.031 146.739 191.553 146.739C181.309 146.739 174.906 137.249 174.906 122.487C174.906 106.487 182.465 96.3176 194.13 96.3176C201.876 96.3176 204.652 100.817 205.609 105.609C206.087 107.339 206.379 107.619 206.858 107.619C207.336 107.619 207.522 107.326 207.429 106.181C206.087 100.138 209.82 96.3043 215.082 96.3043C219.957 96.3043 225.219 99.6587 225.219 103.199C225.219 106.74 220.622 110.773 220.622 121.023C220.622 131.272 225.219 136.264 225.219 139.711L225.232 139.724ZM197.013 128.503C201.132 128.503 203.709 124.67 203.709 119.971C203.709 115.272 201.025 111.439 196.827 111.439C192.629 111.439 189.945 115.658 189.945 119.971C189.945 124.67 192.815 128.503 197.026 128.503H197.013Z" fill="#2D1A0F"/>
<path d="M246.276 146.726C233.163 146.726 225.896 137.235 225.896 122.567C225.896 105.502 235.847 96.3043 247.419 96.3043C255.736 96.3043 261.953 101.003 263.587 107.805C264.451 111.452 264.252 117.296 259.097 119.785C253.264 122.474 244.841 119.492 248.389 113.648C249.73 111.545 249.159 110.387 247.047 110.387C243.792 110.387 241.015 112.97 241.015 118.627C241.015 124.67 244.177 128.503 248.854 128.503C251.723 128.503 255.842 126.973 256.984 123.805C257.649 121.795 259.469 120.743 261.674 121.409C264.066 122.074 265.886 124.284 265.886 128.889C265.886 137.608 259.283 146.713 246.276 146.713V146.726Z" fill="#2D1A0F"/>
<path d="M77.1897 219.124C77.1897 212.415 80.0594 205.041 80.0594 188.735C80.0594 178.286 78.9168 171.764 78.6245 170.433C77.0037 160.942 72.6991 156.829 69.1518 159.318C66.2821 161.235 65.4186 166.12 70.0154 172.642C77.0037 182.519 74.0277 192.382 64.276 192.489C57.487 192.582 50.4988 187.883 50.4988 174.945C50.4988 151.465 74.227 150.599 82.4508 150.599H97.0916C126.081 150.599 137.746 164.789 137.746 190.945C137.746 221.134 122.348 231.197 96.7993 231.197H89.3328C81.5872 231.197 77.1897 227.177 77.1897 219.124ZM117.565 190.08C117.565 173.494 114.217 161.994 105.701 161.994C95.7497 161.994 96.135 185.088 96.135 191.996C96.135 203.497 97.5699 215.29 106.471 215.29C115.373 215.29 117.565 204.455 117.565 190.08Z" fill="#2D1A0F"/>
<path d="M163.666 170.726C176.394 170.726 186.624 180.988 186.624 196.988C186.624 211.75 177.921 221.147 163.852 221.147C149.782 221.147 140.695 211.75 140.695 196.708C140.695 181.667 150.925 170.739 163.653 170.739L163.666 170.726ZM163.759 202.925C168.542 202.925 171.505 199.091 171.505 194.392C171.505 189.694 168.449 185.86 163.56 185.86C158.671 185.86 155.721 190.08 155.721 194.392C155.721 199.091 158.976 202.925 163.759 202.925Z" fill="#2D1A0F"/>
<path d="M216.662 208.675C217.712 216.821 209.767 221.134 202.885 221.134C196.003 221.134 189.679 217.114 189.679 207.53C189.679 202.352 191.592 194.978 191.592 185.873C191.592 173.228 188.723 166.799 188.723 160.662C188.723 152.995 193.319 150.599 199.431 150.599C205.542 150.599 209.674 152.995 209.674 160.476C209.674 166.799 206.711 173.414 206.711 185.873C206.711 217.593 215.52 199.584 216.662 208.688V208.675Z" fill="#2D1A0F"/>
<path d="M247.645 208.675C248.694 216.821 240.763 221.134 233.867 221.134C226.972 221.134 220.661 217.114 220.661 207.53C220.661 202.352 222.575 194.978 222.575 185.873C222.575 173.228 219.705 166.799 219.705 160.662C219.705 152.995 224.302 150.599 230.413 150.599C236.524 150.599 240.656 152.995 240.656 160.476C240.656 166.799 237.694 173.414 237.694 185.873C237.694 217.593 246.489 199.584 247.645 208.688V208.675Z" fill="#2D1A0F"/>
<path d="M300.734 214.132C300.734 217.78 295.473 221.134 290.69 221.134C284.18 221.134 280.354 214.518 285.044 206.186C286 204.562 285.907 204.269 285.615 204.083C285.044 203.896 284.659 204.176 284.087 205.52C282.267 209.061 278.534 221.147 267.055 221.147C256.812 221.147 250.408 211.657 250.408 196.895C250.408 180.882 257.968 170.726 269.633 170.726C277.378 170.726 280.155 175.225 281.111 180.017C281.59 181.747 281.882 182.026 282.36 182.026C282.839 182.026 283.025 181.734 282.932 180.589C281.59 174.546 285.323 170.712 290.584 170.712C295.46 170.712 300.721 174.067 300.721 177.607C300.721 181.148 296.124 185.181 296.124 195.431C296.124 205.68 300.721 210.672 300.721 214.119L300.734 214.132ZM272.516 202.925C276.634 202.925 279.212 199.091 279.212 194.392C279.212 189.694 276.528 185.86 272.33 185.86C268.131 185.86 265.448 190.08 265.448 194.392C265.448 199.091 268.317 202.925 272.529 202.925H272.516Z" fill="#2D1A0F"/>
<path d="M331.451 187.497C331.929 185.194 330.109 185.101 329.445 185.101C326.004 185.101 323.612 189.228 323.612 195.55V196.322C323.612 210.312 327.438 207.823 328.395 211.657C329.445 216.156 324.183 221.147 317.394 221.147C311.841 221.147 306.965 217.7 306.965 209.833C306.965 205.334 308.586 200.821 308.586 196.322V195.55C308.586 193.341 308.4 190.758 307.722 188.07C306.381 182.226 303.71 180.309 303.71 177.048C303.71 173.508 307.058 170.726 312.226 170.726C316.624 170.726 320.264 172.829 320.928 175.997C321.5 178.486 320.543 182.705 318.723 185.674C317.952 186.925 317.766 187.684 318.537 187.684C318.829 187.684 319.108 187.497 320.065 185.674C324.662 176.383 331.637 170.726 338.532 170.726C346.477 170.726 348.005 178.206 348.005 181.933C348.005 187.976 344.178 192.955 338.346 193.248C333.855 193.54 330.879 190.758 331.464 187.497H331.451Z" fill="#2D1A0F"/>
<path d="M375.546 164.589C370.856 164.589 367.415 166.799 367.415 169.767C367.415 179.923 405.013 176.862 405.013 204.948C405.013 222.678 390 233.22 372.875 233.22C357.185 233.22 346.091 224.408 346.091 210.698C346.091 198.625 354.607 190.572 367.813 190.572C373.739 190.572 377.671 192.196 379.956 194.312C385.789 199.77 383.012 210.325 375.267 209.939C370.391 209.753 371.533 205.72 368.478 205.72C367.229 205.72 366.179 206.492 366.179 208.595C366.179 212.522 369.434 215.117 374.217 215.117C380.913 215.117 387.224 210.325 387.224 202.472C387.224 183.597 350.303 190.878 350.303 169.208C350.303 158.759 359.005 150.52 375.944 150.52C391.542 150.52 401.585 157.415 401.585 167.677C401.585 176.303 394.597 179.95 387.901 179.085C383.411 178.606 382.454 176.396 384.075 173.241C387.33 167.012 380.528 164.616 375.559 164.616L375.546 164.589Z" fill="#2D1A0F"/>
<path d="M12.8738 129.222C12.5417 131.445 12.3424 134.094 11.3061 138.274C10.1768 142.799 9.35313 143.997 9.33984 146.926C9.33984 148.47 9.33984 152.317 11.6914 155.178C15.1988 159.425 22.7716 160.13 27.7803 157.148C33.9449 153.475 34.3036 145.355 34.4497 141.814C34.6756 136.729 33.3072 134.227 32.2443 129.475C31.2479 124.963 31.0619 120.836 32.882 105.622C34.9147 88.6772 35.9244 80.2114 37.5984 74.155C38.0369 72.5577 48.227 36.5916 59.9715 37.1906C65.6046 37.4835 69.6567 46.069 72.1412 51.3534C73.7089 54.6678 74.6389 57.7293 77.2428 76.5243C78.8903 88.3843 78.0931 84.1382 79.993 98.5539C81.6537 111.119 82.1585 113.608 81.5607 118.613C81.5607 118.613 81.0558 122.926 79.2091 131.991C79.2091 131.991 78.5714 135.957 79.2091 138.287C80.365 142.48 86.4365 144.184 87.8448 144.583C88.8147 144.849 97.4238 147.272 101.582 142.613C104.08 139.818 103.721 135.891 103.15 129.635C102.711 124.856 101.835 123.192 101.184 119.412C100.107 113.103 100.984 108.271 101.967 102.494C107.415 70.7075 106.617 68.2183 110.603 58.8342C114.164 50.435 118.761 39.5999 125.124 39.56C130.585 39.5334 134.65 47.4667 138.862 55.6795C145.066 67.8057 146.993 78.2148 149.464 92.2578C152.028 106.82 153.303 114.101 151.815 120.969C151.589 122.008 150.008 129.129 148.281 138.673C146.846 146.619 146.647 148.842 147.883 151.252C150.394 156.177 157.568 159.465 163.972 157.548C164.689 157.335 169.751 155.711 172.209 150.466C174.494 145.595 173.577 139.605 169.857 135.132C169.711 130.181 169.405 123.605 168.675 115.858C168.157 110.254 167.612 106.075 167.492 105.236C166.522 97.8883 164.915 86.0682 160.823 72.5976C157.834 62.7609 154.552 55.4931 153.37 52.9374C145.97 36.9644 138.171 20.1394 125.895 19.1144C120.501 18.6619 116.236 21.4305 113.725 23.0412C111.254 24.6385 104.359 29.7099 97.6496 53.4432C93.8233 66.9538 93.3185 74.9803 91.7375 74.9536C89.1734 74.9137 89.8642 53.7095 78.3854 32.8779C75.7947 28.1792 71.8887 22.2026 65.0333 19.8998C65.0333 19.8998 59.8386 18.1428 54.0461 19.5005C28.0992 25.5835 15.6904 109.815 12.834 129.222H12.8738Z" fill="#2D1A0F"/>
<path d="M367.136 130.114C370.059 132.443 370.285 134.853 370.351 137.275C370.617 140.909 370.989 148.164 371.122 151.797C371.507 163.844 371.361 176.116 371.693 188.149C371.879 202.698 373.792 217.167 374.191 231.703C374.244 234.125 374.27 236.548 374.23 238.97C374.297 241.393 374.191 243.816 370.989 246.358C367.627 244.042 367.348 241.633 367.255 239.21C367.056 236.787 366.923 234.378 366.817 231.956C366.246 217.42 367.202 202.858 366.418 188.336C365.967 176.316 364.997 164.07 364.585 152.037C364.466 148.43 364.372 141.109 364.399 137.502C364.319 135.079 364.372 132.656 367.136 130.141V130.114Z" fill="#2D1A0F"/>
<path d="M378.362 130.793C381.272 133.442 381.458 136.157 381.511 138.873C381.737 142.946 382.042 151.065 382.135 155.138C382.388 168.636 382.109 182.373 382.361 195.843C382.56 214.838 384.155 233.859 385.018 252.774C384.912 253.453 384.859 254.132 384.62 254.824C384.261 255.822 381.378 256.634 381.046 257.952C381.046 258.963 381.086 260.055 381.099 261C381.073 260.188 381.073 258.711 381.019 257.952C380.621 256.647 377.711 255.955 377.313 254.97C377.047 254.291 376.967 253.626 376.834 252.947C376.901 234.006 377.711 214.931 377.1 195.95C376.781 182.479 375.931 168.756 375.612 155.272C375.532 151.252 375.493 143.026 375.546 138.992C375.479 136.277 375.559 133.562 378.349 130.793H378.362Z" fill="#2D1A0F"/>
<path d="M219.227 124.071C219.227 127.718 213.966 131.072 209.183 131.072C202.673 131.072 198.847 124.457 203.536 116.124C204.493 114.5 204.4 114.207 204.108 114.021C203.536 113.835 203.151 114.114 202.58 115.459C200.76 118.999 197.026 131.086 185.548 131.086C175.304 131.086 168.901 121.595 168.901 106.833C168.901 90.8335 176.46 80.664 188.125 80.664C195.871 80.664 198.647 85.1631 199.604 89.955C200.082 91.6854 200.374 91.965 200.853 91.965C201.331 91.965 201.517 91.6721 201.424 90.5274C200.082 84.4843 203.815 80.6507 209.076 80.6507C213.952 80.6507 219.213 84.0051 219.213 87.5457C219.213 91.0864 214.617 95.1197 214.617 105.369C214.617 115.618 219.213 120.61 219.213 124.058L219.227 124.071ZM190.995 112.863C195.113 112.863 197.691 109.03 197.691 104.331C197.691 99.632 195.007 95.7985 190.809 95.7985C186.61 95.7985 183.927 100.018 183.927 104.331C183.927 109.03 186.796 112.863 191.008 112.863H190.995Z" fill="#FFB54A"/>
<path d="M209.169 134.4C205.077 134.4 201.61 132.497 199.67 129.156C199.458 128.796 199.272 128.437 199.112 128.051C196.07 131.512 191.739 134.387 185.547 134.387C173.418 134.387 165.579 123.565 165.579 106.807C165.579 88.8901 174.427 77.3097 188.125 77.3097C193.067 77.3097 196.96 78.9469 199.577 82.0484C199.737 81.7954 199.923 81.5558 200.109 81.3163C202.155 78.7606 205.423 77.3097 209.076 77.3097C215.427 77.3097 222.535 81.689 222.535 87.5324C222.535 89.5291 221.751 91.2595 220.834 93.2561C219.545 96.078 217.951 99.5921 217.951 105.356C217.951 111.119 219.585 115.192 220.887 118.254C221.777 120.317 222.535 122.114 222.535 124.044C222.535 129.954 215.48 134.373 209.169 134.373V134.4ZM203.749 110.614C204.28 110.614 204.772 110.72 205.157 110.853L205.582 111L205.954 111.252C208 112.623 208.146 114.833 206.393 117.815C204.666 120.89 204.294 123.898 205.41 125.815C206.14 127.066 207.482 127.758 209.169 127.758C212.717 127.758 215.892 125.269 215.892 124.084C215.892 123.512 215.321 122.194 214.776 120.916C213.394 117.682 211.295 112.783 211.295 105.396C211.295 98.0081 213.394 93.5756 214.789 90.5274C215.334 89.3427 215.892 88.1048 215.892 87.5724C215.892 86.5607 212.863 84.0051 209.076 84.0051C207.416 84.0051 206.074 84.5508 205.29 85.5225C204.267 86.8003 204.387 88.5707 204.666 89.8219L204.732 90.2745C204.798 91.0199 204.931 92.7503 203.709 94.0947C202.992 94.8801 201.969 95.3193 200.853 95.3193C197.637 95.3193 196.774 92.2046 196.415 90.8735L196.362 90.6339C195.432 85.9884 192.974 84.0051 188.138 84.0051C178.32 84.0051 172.235 92.7503 172.235 106.847C172.235 116.963 175.729 127.771 185.561 127.771C192.828 127.771 196.189 121.608 198.767 115.818C199.072 115.126 199.338 114.527 199.577 114.061C200.773 111.332 202.42 110.64 203.749 110.64V110.614ZM190.995 116.191C185.069 116.191 180.592 111.093 180.592 104.331C180.592 97.5688 184.976 92.4708 190.795 92.4708C196.614 92.4708 200.999 97.4624 200.999 104.331C200.999 111.199 196.787 116.191 190.981 116.191H190.995ZM190.809 99.1262C188.205 99.1262 187.248 102.321 187.248 104.331C187.248 106.913 188.537 109.535 191.008 109.535C193.333 109.535 194.382 106.833 194.382 104.331C194.382 101.828 193.28 99.1262 190.822 99.1262H190.809Z" fill="#2D1A0F"/>
<path d="M240.258 131.072C227.145 131.072 219.878 121.582 219.878 106.913C219.878 89.8485 229.829 80.6507 241.4 80.6507C249.717 80.6507 255.935 85.3495 257.569 92.1513C258.433 95.7985 258.233 101.642 253.079 104.131C247.246 106.82 238.823 103.838 242.37 97.9948C243.712 95.8917 243.141 94.7336 241.028 94.7336C237.773 94.7336 234.997 97.316 234.997 102.973C234.997 109.016 238.159 112.85 242.835 112.85C245.705 112.85 249.824 111.319 250.966 108.151C251.63 106.141 253.451 105.09 255.656 105.755C258.047 106.421 259.868 108.63 259.868 113.236C259.868 121.954 253.265 131.059 240.258 131.059V131.072Z" fill="#FFB54A"/>
<path d="M240.258 134.4C225.644 134.4 216.556 123.871 216.556 106.913C216.556 86.5874 229.43 77.323 241.4 77.323C251.139 77.323 258.751 82.8337 260.797 91.3793C261.688 95.1596 261.475 99.9781 258.831 103.585C260.864 104.89 263.176 107.619 263.176 113.236C263.176 123.751 255.297 134.387 240.244 134.387L240.258 134.4ZM241.414 83.9784C232.353 83.9784 223.212 91.0731 223.212 106.913C223.212 120.144 229.43 127.745 240.271 127.745C251.112 127.745 256.559 120.224 256.559 113.249C256.559 110.747 255.961 109.309 254.779 108.976C254.46 108.883 254.341 108.896 254.314 108.91C254.301 108.91 254.208 109.016 254.141 109.229C252.467 113.835 247.206 116.204 242.862 116.204C236.285 116.204 231.702 110.773 231.702 103C231.702 95.2261 236.392 91.4325 241.055 91.4325C244.071 91.4325 245.373 92.9899 245.878 93.9084C246.529 95.093 246.927 97.063 245.187 99.8051C244.894 100.284 244.801 100.644 244.948 100.803C245.824 101.788 249.053 102.361 251.71 101.136C255.629 99.246 254.606 93.9749 254.367 92.95C253.065 87.5191 247.99 84.0051 241.427 84.0051L241.414 83.9784ZM238.358 102.081C238.331 102.427 238.318 102.733 238.318 102.986C238.318 104.517 238.65 109.535 242.835 109.535C244.097 109.535 245.612 109.083 246.661 108.377C243.964 108.058 241.52 106.98 239.965 105.223C239.128 104.291 238.597 103.226 238.358 102.095V102.081Z" fill="#2D1A0F"/>
<path d="M71.1848 203.47C71.1848 196.762 74.0545 189.387 74.0545 173.082C74.0545 162.633 72.9119 156.11 72.6196 154.779C70.9988 145.288 66.6942 141.175 63.147 143.664C60.2773 145.581 59.4137 150.466 64.0105 156.989C70.9988 166.865 68.0228 176.729 58.2711 176.835C51.4822 176.928 44.4939 172.23 44.4939 159.291C44.4939 135.811 68.2221 134.946 76.4459 134.946H91.0867C120.076 134.946 131.741 149.135 131.741 175.291C131.741 205.48 116.343 215.543 90.7944 215.543H83.3279C75.5823 215.543 71.1848 211.523 71.1848 203.47ZM111.547 174.426C111.547 157.841 108.199 146.34 99.6825 146.34C89.7316 146.34 90.1168 169.434 90.1168 176.343C90.1168 187.843 91.5517 199.637 100.453 199.637C109.354 199.637 111.547 188.802 111.547 174.426Z" fill="#FFB54A"/>
<path d="M90.7943 218.884H83.3278C73.6425 218.884 67.8633 213.121 67.8633 203.484C67.8633 200.595 68.3282 197.667 68.873 194.286C69.6967 189.148 70.733 182.759 70.733 173.095C70.733 172.416 70.733 171.764 70.7197 171.125C70.4938 172.003 70.175 172.855 69.7631 173.654C67.6772 177.74 63.5056 180.11 58.3109 180.163C53.9 180.23 49.8479 178.632 46.8586 175.677C44.2679 173.121 41.1724 168.196 41.1724 159.291C41.1724 148.962 45.7559 131.618 76.4458 131.618H91.0866C120.687 131.618 135.062 145.901 135.062 175.291C135.062 204.682 120.993 218.871 90.7943 218.871V218.884ZM75.8745 154.153C76.0472 154.965 77.3625 161.781 77.3625 173.082C77.3625 183.278 76.2864 189.96 75.4228 195.324C74.9047 198.559 74.4928 201.101 74.4928 203.457C74.4928 209.513 77.2164 212.202 83.3145 212.202H90.781C117.153 212.202 128.406 201.154 128.406 175.278C128.406 149.401 116.887 138.26 91.0733 138.26H76.4325C57.434 138.26 47.8019 145.328 47.8019 159.278C47.8019 164.509 49.0773 168.529 51.5086 170.925C53.7007 173.095 56.3712 173.494 58.2179 173.494C60.131 173.481 62.642 172.962 63.8377 170.606C65.3257 167.704 64.3426 163.218 61.3001 158.905C57.4074 153.381 57.155 149.175 57.6333 146.62C58.085 144.21 59.387 142.174 61.3001 140.896C63.2797 139.511 65.6313 139.232 67.8633 140.164C71.7427 141.788 74.5858 146.753 75.8745 154.167V154.153ZM65.2327 146.273C65.2327 146.273 65.1663 146.3 65.0467 146.38C64.5551 146.713 64.2761 147.179 64.1566 147.831C63.9971 148.683 63.9307 151.105 66.7074 155.059C68.315 157.335 69.4974 159.677 70.2414 161.98C69.8561 157.867 69.3911 155.631 69.3645 155.471L69.338 155.338C68.2087 148.709 65.897 146.34 65.2327 146.273ZM100.453 202.965C86.7953 202.965 86.7953 183.624 86.7953 176.343V175.611C86.7687 164.017 87.4995 151.425 93.0794 145.821C94.9128 143.984 97.198 143.012 99.6824 143.012C109.753 143.012 114.868 153.581 114.868 174.426C114.868 181.481 114.868 202.965 100.453 202.965ZM99.6824 149.681C98.9517 149.681 98.3804 149.934 97.7826 150.533C93.3983 154.925 93.4249 170.486 93.4381 175.597V176.343C93.4381 194.233 97.4371 196.309 100.453 196.309C106.883 196.309 108.225 184.409 108.225 174.426C108.225 166.985 107.388 149.668 99.6824 149.668V149.681Z" fill="#2D1A0F"/>
<path d="M157.648 155.072C170.375 155.072 180.605 165.335 180.605 181.334C180.605 196.096 171.903 205.494 157.834 205.494C143.764 205.494 134.677 196.096 134.677 181.055C134.677 166.013 144.907 155.085 157.634 155.085L157.648 155.072ZM157.741 187.271C162.523 187.271 165.486 183.437 165.486 178.739C165.486 174.04 162.43 170.206 157.541 170.206C152.652 170.206 149.703 174.426 149.703 178.739C149.703 183.437 152.958 187.271 157.741 187.271Z" fill="#FFB54A"/>
<path d="M157.847 208.808C142.01 208.808 131.369 197.653 131.369 181.041C131.369 164.429 142.422 151.744 157.648 151.744C172.873 151.744 183.927 164.19 183.927 181.334C183.927 198.479 173.683 208.821 157.834 208.821L157.847 208.808ZM157.648 158.4C146.275 158.4 138.011 167.93 138.011 181.041C138.011 194.153 145.611 202.153 157.847 202.153C170.083 202.153 177.297 194.366 177.297 181.321C177.297 168.276 169.219 158.386 157.661 158.386L157.648 158.4ZM157.741 190.599C151.271 190.599 146.381 185.501 146.381 178.739C146.381 172.988 150.301 166.879 157.541 166.879C164.065 166.879 168.808 171.87 168.808 178.739C168.808 185.607 164.158 190.599 157.741 190.599ZM157.555 173.547C153.981 173.547 153.038 176.955 153.038 178.752C153.038 181.254 154.512 183.957 157.754 183.957C160.996 183.957 162.178 181.148 162.178 178.752C162.178 176.356 160.969 173.547 157.555 173.547Z" fill="#2D1A0F"/>
<path d="M210.644 193.021C211.694 201.168 203.749 205.48 196.867 205.48C189.985 205.48 183.661 201.46 183.661 191.877C183.661 186.699 185.574 179.324 185.574 170.22C185.574 157.574 182.705 151.145 182.705 145.009C182.705 137.342 187.301 134.946 193.413 134.946C199.524 134.946 203.656 137.342 203.656 144.823C203.656 151.145 200.693 157.761 200.693 170.22C200.693 201.94 209.502 183.93 210.644 193.035V193.021Z" fill="#FFB54A"/>
<path d="M196.867 208.808C188.643 208.808 180.34 203.577 180.34 191.877C180.34 189.427 180.698 186.712 181.123 183.571C181.655 179.631 182.253 175.185 182.253 170.206C182.253 163.058 181.323 158.107 180.499 153.728C179.901 150.56 179.383 147.831 179.383 144.996C179.383 136.357 184.365 131.605 193.413 131.605C202.46 131.605 206.977 136.29 206.977 144.809C206.977 147.751 206.433 150.599 205.808 153.887C204.971 158.28 204.015 163.258 204.015 170.22C204.015 184.769 205.954 186.752 206.167 186.938C206.207 186.912 206.672 186.872 206.977 186.832C208.492 186.672 213.115 186.193 213.926 192.609C214.431 196.522 213.354 200.116 210.83 203.004C207.682 206.585 202.327 208.821 196.854 208.821L196.867 208.808ZM193.426 138.274C187.275 138.274 186.039 140.856 186.039 145.009C186.039 147.218 186.478 149.548 187.036 152.503C187.873 156.935 188.909 162.446 188.909 170.22C188.909 175.637 188.284 180.323 187.726 184.462C187.341 187.364 186.996 189.88 186.996 191.877C186.996 201.42 194.555 202.153 196.88 202.153C200.441 202.153 203.975 200.755 205.861 198.599C207.124 197.161 207.615 195.484 207.363 193.474C205.994 193.607 203.749 193.687 201.73 191.863C199.471 189.827 197.385 185.793 197.385 170.206C197.385 162.619 198.448 157.082 199.298 152.623C199.87 149.668 200.348 147.125 200.348 144.809C200.348 139.977 198.541 138.26 193.426 138.26V138.274Z" fill="#2D1A0F"/>
<path d="M241.639 193.021C242.689 201.168 234.757 205.48 227.862 205.48C220.967 205.48 214.656 201.46 214.656 191.877C214.656 186.699 216.569 179.324 216.569 170.22C216.569 157.574 213.7 151.145 213.7 145.009C213.7 137.342 218.297 134.946 224.408 134.946C230.519 134.946 234.651 137.342 234.651 144.823C234.651 151.145 231.688 157.761 231.688 170.22C231.688 201.94 240.484 183.93 241.639 193.035V193.021Z" fill="#FFB54A"/>
<path d="M227.862 208.808C219.639 208.808 211.335 203.577 211.335 191.877C211.335 189.427 211.694 186.712 212.119 183.571C212.65 179.631 213.248 175.185 213.248 170.206C213.248 163.058 212.318 158.107 211.494 153.728C210.897 150.56 210.378 147.831 210.378 144.996C210.378 136.357 215.361 131.605 224.408 131.605C233.456 131.605 237.973 136.29 237.973 144.809C237.973 147.751 237.428 150.599 236.804 153.887C235.967 158.28 235.01 163.258 235.01 170.22C235.01 184.769 236.95 186.752 237.162 186.938C237.202 186.912 237.667 186.872 237.973 186.832C239.487 186.672 244.111 186.193 244.921 192.609C245.426 196.522 244.35 200.116 241.826 203.004C238.677 206.585 233.323 208.821 227.849 208.821L227.862 208.808ZM224.421 138.274C218.27 138.274 217.035 140.856 217.035 145.009C217.035 147.218 217.473 149.548 218.031 152.503C218.868 156.935 219.904 162.446 219.904 170.22C219.904 175.637 219.28 180.323 218.722 184.462C218.337 187.364 217.991 189.88 217.991 191.877C217.991 201.42 225.551 202.153 227.876 202.153C231.436 202.153 234.97 200.755 236.857 198.599C238.119 197.161 238.61 195.484 238.358 193.474C236.99 193.607 234.744 193.687 232.725 191.863C230.466 189.827 228.38 185.793 228.38 170.206C228.38 162.619 229.443 157.082 230.294 152.623C230.865 149.668 231.343 147.125 231.343 144.809C231.343 139.977 229.536 138.26 224.421 138.26V138.274Z" fill="#2D1A0F"/>
<path d="M294.729 198.492C294.729 202.139 289.468 205.494 284.685 205.494C278.175 205.494 274.349 198.878 279.039 190.545C279.995 188.921 279.902 188.629 279.61 188.442C279.039 188.256 278.653 188.535 278.082 189.88C276.262 193.421 272.529 205.507 261.05 205.507C250.807 205.507 244.403 196.016 244.403 181.254C244.403 165.241 251.963 155.085 263.627 155.085C271.373 155.085 274.15 159.584 275.106 164.376C275.585 166.107 275.877 166.386 276.355 166.386C276.833 166.386 277.019 166.093 276.926 164.949C275.585 158.905 279.318 155.072 284.579 155.072C289.455 155.072 294.716 158.426 294.716 161.967C294.716 165.508 290.119 169.541 290.119 179.79C290.119 190.04 294.716 195.031 294.716 198.479L294.729 198.492ZM266.51 187.271C270.629 187.271 273.206 183.437 273.206 178.739C273.206 174.04 270.523 170.206 266.324 170.206C262.126 170.206 259.442 174.426 259.442 178.739C259.442 183.437 262.312 187.271 266.524 187.271H266.51Z" fill="#FFB54A"/>
<path d="M284.685 208.808C280.593 208.808 277.126 206.905 275.186 203.577C274.973 203.217 274.787 202.858 274.628 202.472C271.586 205.933 267.254 208.808 261.063 208.808C248.934 208.808 241.095 197.986 241.095 181.228C241.095 163.311 249.943 151.731 263.641 151.731C268.583 151.731 272.476 153.368 275.093 156.47C275.252 156.217 275.438 155.977 275.624 155.737C277.67 153.182 280.939 151.731 284.592 151.731C290.943 151.731 298.051 156.11 298.051 161.954C298.051 163.95 297.267 165.681 296.35 167.677C295.061 170.499 293.467 174.013 293.467 179.777C293.467 185.541 295.101 189.614 296.403 192.675C297.293 194.738 298.051 196.535 298.051 198.465C298.051 204.375 290.996 208.795 284.685 208.795V208.808ZM279.251 185.035C279.783 185.035 280.274 185.141 280.66 185.274L281.072 185.421L281.444 185.66C283.489 187.031 283.649 189.241 281.895 192.223C280.168 195.297 279.796 198.306 280.912 200.222C281.643 201.474 282.985 202.166 284.672 202.166C288.219 202.166 291.394 199.677 291.394 198.492C291.394 197.92 290.823 196.602 290.278 195.324C288.897 192.09 286.798 187.191 286.798 179.804C286.798 172.416 288.897 167.983 290.292 164.935C290.836 163.751 291.394 162.513 291.394 161.98C291.394 160.969 288.365 158.413 284.579 158.413C282.918 158.413 281.576 158.959 280.793 159.93C279.77 161.208 279.889 162.979 280.168 164.23L280.235 164.682C280.301 165.428 280.434 167.158 279.212 168.503C278.494 169.288 277.471 169.727 276.355 169.727C273.14 169.727 272.276 166.612 271.918 165.268L271.865 165.028C270.935 160.383 268.477 158.4 263.641 158.4C253.823 158.4 247.738 167.145 247.738 181.241C247.738 191.357 251.232 202.166 261.063 202.166C268.331 202.166 271.692 196.003 274.269 190.213C274.575 189.52 274.841 188.922 275.08 188.456C276.289 185.727 277.923 185.035 279.251 185.035ZM266.51 190.599C260.585 190.599 256.108 185.501 256.108 178.739C256.108 171.977 260.492 166.879 266.311 166.879C272.13 166.879 276.515 171.87 276.515 178.739C276.515 185.607 272.303 190.599 266.497 190.599H266.51ZM266.311 173.547C263.707 173.547 262.751 176.742 262.751 178.752C262.751 181.334 264.039 183.957 266.51 183.957C268.835 183.957 269.885 181.254 269.885 178.752C269.885 176.25 268.782 173.547 266.324 173.547H266.311Z" fill="#2D1A0F"/>
<path d="M325.432 171.844C325.911 169.541 324.09 169.448 323.426 169.448C319.985 169.448 317.594 173.574 317.594 179.897V180.669C317.594 194.659 321.42 192.169 322.377 196.003C323.426 200.502 318.165 205.494 311.376 205.494C305.823 205.494 300.947 202.046 300.947 194.179C300.947 189.68 302.568 185.168 302.568 180.669V179.897C302.568 177.687 302.382 175.105 301.704 172.416C300.362 166.573 297.692 164.656 297.692 161.395C297.692 157.854 301.04 155.072 306.208 155.072C310.606 155.072 314.246 157.175 314.91 160.343C315.481 162.832 314.525 167.052 312.705 170.02C311.934 171.271 311.748 172.03 312.519 172.03C312.811 172.03 313.09 171.844 314.047 170.02C318.643 160.729 325.618 155.072 332.514 155.072C340.458 155.072 341.986 162.553 341.986 166.28C341.986 172.323 338.16 177.301 332.328 177.594C327.837 177.887 324.861 175.105 325.446 171.844H325.432Z" fill="#FFB54A"/>
<path d="M311.363 208.808C304.521 208.808 297.612 204.282 297.612 194.166C297.612 191.61 298.051 189.174 298.476 186.818C298.861 184.649 299.233 182.612 299.233 180.655V179.883C299.233 177.487 298.981 175.238 298.476 173.215C297.891 170.646 297.054 169.022 296.244 167.464C295.314 165.681 294.357 163.83 294.357 161.395C294.357 155.804 299.339 151.744 306.195 151.744C311.815 151.744 316.465 154.553 317.886 158.679C322.23 154.233 327.332 151.744 332.514 151.744C341.349 151.744 345.308 159.052 345.308 166.28C345.308 174.399 339.914 180.549 332.487 180.908C329.073 181.121 325.99 179.99 324.037 177.794C323.041 176.676 322.39 175.318 322.151 173.894C321.46 175.052 320.915 177.088 320.915 179.883V180.655C320.915 188.908 322.23 190.239 323.2 191.211C323.997 192.01 325.074 193.101 325.605 195.191C326.256 197.96 325.525 200.821 323.572 203.297C320.875 206.705 316.212 208.821 311.389 208.821L311.363 208.808ZM306.208 158.4C303.205 158.4 301.013 159.664 301.013 161.395C301.013 162.18 301.399 162.965 302.143 164.403C303.006 166.067 304.175 168.33 304.946 171.671C305.57 174.16 305.889 176.942 305.889 179.897V180.669C305.889 183.224 305.451 185.66 305.026 188.016C304.64 190.186 304.268 192.223 304.268 194.179C304.268 201.128 308.719 202.166 311.376 202.166C314.179 202.166 316.916 200.981 318.364 199.171C318.75 198.678 319.374 197.72 319.148 196.775C319.095 196.549 319.069 196.495 318.497 195.936C316.186 193.607 314.272 190.865 314.272 180.682V179.91C314.272 177.9 314.472 176.13 314.844 174.586C314.233 175.065 313.475 175.384 312.532 175.384C311.11 175.384 309.862 174.679 309.197 173.494C308.015 171.364 309.33 169.221 309.901 168.303C311.376 165.894 312.027 162.579 311.695 161.115C311.403 159.757 309.29 158.426 306.221 158.426L306.208 158.4ZM328.701 172.456C328.647 172.815 328.74 173.095 328.98 173.374C329.431 173.88 330.507 174.386 332.102 174.28C336.619 174.053 338.652 169.98 338.652 166.293C338.652 163.924 338.054 158.413 332.5 158.413C327.983 158.413 323.227 161.727 319.454 167.291C320.689 166.519 322.058 166.133 323.413 166.133C325.751 166.133 327.066 167.145 327.744 167.983C328.422 168.809 329.126 170.26 328.687 172.469L328.701 172.456Z" fill="#2D1A0F"/>
<path d="M369.528 148.936C364.838 148.936 361.397 151.145 361.397 154.114C361.397 164.27 398.995 161.208 398.995 189.294C398.995 207.024 383.982 217.567 366.857 217.567C351.167 217.567 340.073 208.755 340.073 195.045C340.073 182.972 348.589 174.918 361.795 174.918C367.721 174.918 371.653 176.542 373.938 178.659C379.771 184.116 376.994 194.672 369.249 194.286C364.373 194.099 365.515 190.066 362.46 190.066C361.211 190.066 360.161 190.838 360.161 192.941C360.161 196.868 363.416 199.464 368.199 199.464C374.895 199.464 381.206 194.672 381.206 186.818C381.206 167.944 344.285 175.225 344.285 153.554C344.285 143.105 352.987 134.866 369.926 134.866C385.523 134.866 395.567 141.761 395.567 152.024C395.567 160.649 388.579 164.296 381.883 163.431C377.393 162.952 376.436 160.742 378.057 157.588C381.312 151.358 374.51 148.962 369.541 148.962L369.528 148.936Z" fill="#FFB54A"/>
<path d="M366.857 220.894C349.134 220.894 336.752 210.259 336.752 195.045C336.752 182.985 344.178 174.333 355.777 172.136C348.098 168.889 340.963 164.004 340.963 153.541C340.963 143.079 348.549 131.525 369.926 131.525C387.25 131.525 398.889 139.751 398.889 152.01C398.889 156.603 397.268 160.45 394.186 163.165C392.777 164.403 391.117 165.348 389.31 165.974C396.431 170.539 402.343 177.501 402.343 189.294C402.343 207.61 387.423 220.894 366.884 220.894H366.857ZM361.782 178.233C350.436 178.233 343.381 184.675 343.381 195.031C343.381 206.692 352.588 214.226 366.844 214.226C381.099 214.226 395.66 205.653 395.66 189.281C395.66 174.067 383.185 169.474 372.171 165.428C364.598 162.646 358.062 160.237 358.062 154.1C358.062 149.175 362.871 145.595 369.514 145.595C373.646 145.595 378.867 146.926 381.139 150.679C382.175 152.396 382.986 155.232 380.98 159.078C380.834 159.371 380.741 159.598 380.687 159.757C380.953 159.864 381.431 159.997 382.215 160.077C385.165 160.45 387.968 159.731 389.775 158.133C391.396 156.696 392.219 154.633 392.219 151.97C392.219 143.571 383.464 138.14 369.899 138.14C356.335 138.14 347.58 144.024 347.58 153.501C347.58 161.741 354.076 164.616 364.771 168.369C374.018 171.617 384.514 175.291 384.514 186.765C384.514 197.148 376.104 202.738 368.186 202.738C361.503 202.738 356.826 198.692 356.826 192.888C356.826 188.629 359.736 186.685 362.446 186.685C365.595 186.685 367.016 188.842 367.707 189.88C368.305 190.772 368.358 190.878 369.368 190.918C371.627 191.025 372.729 189.6 373.247 188.389C374.098 186.366 373.965 183.211 371.653 181.055C370.511 180.003 367.681 178.206 361.769 178.206L361.782 178.233ZM369.527 152.263C366.419 152.263 364.718 153.488 364.718 154.114C364.718 155.551 370.192 157.614 374.071 159.039C374.204 158.147 374.523 157.148 375.094 156.03C375.36 155.511 375.758 154.606 375.466 154.14C374.921 153.235 372.49 152.263 369.527 152.263Z" fill="#2D1A0F"/>
<path d="M6.85552 113.569C6.52338 115.791 6.32409 118.44 5.28781 122.62C4.15853 127.146 3.33482 128.344 3.32153 131.272C3.32153 132.816 3.32153 136.663 5.67309 139.525C9.18051 143.771 16.7533 144.476 21.762 141.495C27.9266 137.821 28.2853 129.701 28.4314 126.161C28.6573 121.076 27.2889 118.573 26.226 113.821C25.2296 109.309 25.0436 105.183 26.8637 89.9683C28.8964 73.0236 29.9061 64.5578 31.5801 58.5014C32.0186 56.9041 42.2087 20.938 53.9532 21.537C59.5863 21.8299 63.6384 30.4154 66.1228 35.6998C67.6906 39.0142 68.6205 42.0757 71.2245 60.8707C72.872 72.7307 72.0748 68.4846 73.9747 82.9002C75.6354 95.4657 76.1402 97.9549 75.5424 102.96C75.5424 102.96 75.0375 107.272 73.1908 116.337C73.1908 116.337 72.5531 120.304 73.1908 122.633C74.3467 126.826 80.4182 128.53 81.8265 128.929C82.7963 129.196 91.4054 131.618 95.5639 126.959C98.0616 124.164 97.7029 120.237 97.1316 113.981C96.6931 109.203 95.8163 107.539 95.1653 103.758C94.0891 97.4491 94.966 92.6172 95.9491 86.8403C101.396 55.0539 100.599 52.5647 104.585 43.1805C108.145 34.7814 112.742 23.9463 119.106 23.9064C124.566 23.8797 128.632 31.813 132.843 40.0259C139.048 52.1521 140.974 62.5612 143.445 76.6042C146.01 91.1663 147.285 98.4474 145.797 105.316C145.571 106.354 143.99 113.475 142.263 123.019C140.828 130.966 140.629 133.189 141.864 135.598C144.375 140.523 151.55 143.811 157.953 141.894C158.671 141.681 163.733 140.057 166.19 134.813C168.476 129.941 167.559 123.951 163.839 119.479C163.693 114.527 163.387 107.951 162.656 100.204C162.138 94.6005 161.594 90.4209 161.474 89.5823C160.504 82.2347 158.897 70.4146 154.805 56.944C151.815 47.1073 148.534 39.8395 147.351 37.2838C139.951 21.3107 132.153 4.48577 119.877 3.46084C114.483 3.00826 110.218 5.77693 107.707 7.38755C105.236 8.98486 98.3406 14.0563 91.6313 37.7896C87.805 51.3002 87.3002 59.3267 85.7192 59.3C83.1551 59.2601 83.8459 38.0558 72.3671 17.2243C69.7764 12.5256 65.8704 6.54896 59.015 4.24618C59.015 4.24618 53.8203 2.48914 48.0278 3.84685C22.1207 9.91662 9.71193 94.1613 6.85552 113.569Z" fill="#FFB54A"/>
<path d="M14.8534 146.646C10.2831 146.646 5.80583 144.902 3.12213 141.641C0 137.861 0 133.069 0 131.259C0 128.849 0.478284 127.305 1.06285 125.349C1.35514 124.377 1.68728 123.286 2.05928 121.795C2.82985 118.72 3.10884 116.564 3.34799 114.66C3.41441 114.101 3.49413 113.569 3.56056 113.063C13.9234 42.8212 28.6439 4.97829 47.3102 0.599009C53.9531 -0.958366 59.8652 0.998335 60.1176 1.0782C67.9561 3.71376 72.3537 10.2228 75.3164 15.6004C81.6271 27.0611 84.3639 38.5351 85.9449 46.7878C86.5959 43.9393 87.4063 40.6116 88.4559 36.8712C95.7365 11.1679 103.402 6.21621 105.927 4.57897C108.624 2.83524 113.659 -0.412619 120.169 0.119816C134.371 1.30449 142.515 18.8616 150.38 35.8596C152.387 40.1723 155.323 47.1605 158.006 55.959C162.271 69.9621 163.918 82.4344 164.795 89.1431C164.995 90.6339 165.499 94.6538 165.991 99.885C166.562 105.995 166.948 112.171 167.147 118.281C171.053 123.618 171.89 130.54 169.219 136.224C166.31 142.44 160.597 144.57 158.923 145.075C151.297 147.365 142.329 143.798 138.915 137.116C137.081 133.535 137.586 130.22 138.995 122.42C139.725 118.347 140.934 111.998 142.489 104.903L142.555 104.597C143.91 98.3675 142.661 91.2861 140.177 77.1766C137.839 63.9322 136.005 53.4699 129.894 41.5433C126.626 35.1674 122.56 27.2208 119.146 27.2208C114.961 27.2474 110.391 38.0292 107.654 44.4717C105.103 50.5016 104.625 53.5231 102.897 64.7975C102.087 70.0686 100.971 77.2964 99.2439 87.386L99.1907 87.6922C98.2475 93.1896 97.5034 97.5289 98.46 103.173C98.6859 104.504 98.9516 105.555 99.2173 106.66C99.6823 108.537 100.161 110.467 100.453 113.648C101.064 120.397 101.502 125.282 98.0482 129.142C92.9066 134.893 83.6598 132.856 80.9362 132.097C73.2571 129.941 70.7461 126.227 69.9888 123.485C69.1917 120.597 69.7896 116.55 69.9091 115.778L69.9357 115.645C71.7293 106.873 72.2474 102.587 72.2474 102.547C72.7124 98.5539 72.4334 96.4241 71.2244 87.4393L70.6797 83.3129C69.7364 76.2049 69.4574 73.6492 69.2183 71.3997C68.9659 69.1102 68.7666 67.3132 67.9429 61.31C65.3256 42.4218 64.4487 39.9194 63.1202 37.0975C61.2735 33.1841 57.4339 25.0245 53.7803 24.8381C53.7405 24.8381 53.6873 24.8381 53.6475 24.8381C47.8948 24.8381 39.4053 42.6747 34.7819 59.3799C33.1743 65.1835 32.1779 73.5959 30.1717 90.3544C28.4446 104.81 28.5509 108.896 29.4809 113.089C29.7732 114.381 30.0787 115.499 30.3843 116.59C31.1814 119.452 31.9387 122.141 31.7527 126.294C31.5933 129.981 31.1549 139.751 23.4625 144.343C20.8585 145.901 17.8294 146.633 14.8401 146.633L14.8534 146.646ZM6.8554 113.569L10.137 114.061C10.0705 114.527 10.0041 115.019 9.93767 115.539C9.68524 117.522 9.36639 119.984 8.50282 123.419C8.09097 125.069 7.71897 126.307 7.4134 127.292C6.88197 129.049 6.64283 129.848 6.62954 131.272C6.62954 132.523 6.62954 135.465 8.22382 137.408C10.5754 140.257 16.3281 140.856 20.0613 138.633C24.6848 135.878 24.977 129.209 25.1099 126.014C25.2428 122.939 24.7113 121.036 23.9806 118.4C23.6618 117.282 23.3163 116.018 22.9842 114.554C21.8815 109.575 21.7088 105.01 23.5555 89.5823C25.6015 72.4911 26.6245 63.9189 28.3649 57.6229C30.9689 48.1988 40.5877 17.5305 54.1125 18.2226C61.7252 18.6086 66.1759 28.0461 69.112 34.2889C70.8923 38.0692 71.8754 41.4901 74.506 60.4182C75.343 66.5012 75.5555 68.3515 75.808 70.6942C76.0471 72.9171 76.3261 75.4328 77.2561 82.4743L77.8008 86.5874C79.0231 95.7719 79.3951 98.5406 78.8238 103.359C78.7972 103.545 78.2791 107.885 76.4324 116.936C76.2198 118.294 76.0604 120.65 76.366 121.755C76.5254 122.314 77.4288 124.257 82.6899 125.721C86.1974 126.706 91.0068 127.039 93.066 124.736C94.5275 123.099 94.3415 120.184 93.7967 114.274C93.5576 111.599 93.1723 110.068 92.7339 108.284C92.4416 107.099 92.136 105.888 91.8703 104.304C90.7278 97.5422 91.5913 92.4575 92.601 86.5741L92.6542 86.2679C94.3813 76.2182 95.484 69.0303 96.2945 63.7858C98.088 52.1787 98.6194 48.678 101.502 41.8761C105.515 32.412 110.51 20.6319 119.066 20.5787H119.119C126.586 20.5787 131.05 29.284 135.779 38.5084C142.343 51.3268 144.269 62.2284 146.7 76.0318C149.331 91.0066 150.659 98.5139 149.025 106.021L148.959 106.341C147.431 113.329 146.249 119.585 145.518 123.605C144.136 131.272 144.123 132.723 144.814 134.081C146.541 137.475 151.975 140.204 156.997 138.7C157.714 138.487 161.394 137.209 163.188 133.388C164.915 129.688 164.171 125.069 161.288 121.595L160.557 120.717L160.517 119.572C160.331 113.262 159.946 106.847 159.348 100.511C158.87 95.3859 158.378 91.4592 158.179 90.0216C157.315 83.5126 155.721 71.3997 151.616 57.9157C149.052 49.4899 146.235 42.8078 144.322 38.6815C137.573 24.1327 129.934 7.62716 119.584 6.77526C115.32 6.41587 111.812 8.69203 109.487 10.1829C102.804 14.4956 97.809 28.0727 94.8065 38.6948C93.1723 44.4584 92.1493 49.2636 91.392 52.7644C89.9838 59.3666 89.2531 62.6544 85.6526 62.6278C81.9858 62.5745 81.3481 58.9673 80.1789 52.4449C78.7972 44.6448 76.4723 31.5868 69.4441 18.8216C67.066 14.5089 63.6117 9.30433 57.952 7.38756C57.9255 7.38756 53.5279 5.9633 48.7717 7.08141C41.6373 8.75859 23.5688 22.5221 10.0838 114.061L6.80226 113.582L6.8554 113.569Z" fill="#2D1A0F"/>
<path d="M361.117 114.46C364.04 116.79 364.266 119.199 364.332 121.622C364.598 125.255 364.97 132.51 365.103 136.144C365.488 148.19 365.342 160.463 365.674 172.496C365.86 187.045 367.773 201.514 368.172 216.049C368.225 218.472 368.252 220.894 368.212 223.317C368.278 225.739 368.172 228.162 364.97 230.704C361.609 228.388 361.33 225.979 361.237 223.556C361.038 221.134 360.905 218.725 360.799 216.302C360.227 201.767 361.184 187.204 360.4 172.682C359.948 160.662 358.978 148.416 358.567 136.383C358.447 132.776 358.354 125.455 358.381 121.848C358.301 119.425 358.354 117.003 361.117 114.487V114.46Z" fill="#FFB54A"/>
<path d="M365.103 234.831L363.084 233.446C358.58 230.345 358.048 226.831 357.916 223.756C357.743 221.6 357.597 219.284 357.477 216.448C357.211 209.54 357.278 202.578 357.344 195.843C357.411 188.283 357.49 180.469 357.092 172.842C356.866 167.078 356.534 161.195 356.202 155.511C355.843 149.255 355.471 142.799 355.258 136.477C355.139 132.829 355.046 125.429 355.059 121.808C354.979 119.598 354.847 115.672 358.885 111.998L360.971 110.094L363.177 111.851C367.455 115.246 367.574 119.172 367.654 121.515C367.906 125.082 368.292 132.337 368.425 136.024C368.624 142.36 368.69 148.829 368.743 155.085C368.796 160.782 368.85 166.666 369.009 172.389C369.115 180.083 369.7 187.87 370.271 195.404C370.776 202.113 371.307 209.061 371.493 215.943C371.547 218.818 371.56 221.147 371.533 223.29C371.613 226.365 371.307 229.919 367.016 233.3L365.103 234.817V234.831ZM363.947 199.876C363.907 205.267 363.907 210.765 364.12 216.156C364.253 218.911 364.386 221.187 364.558 223.277V223.41C364.598 224.195 364.638 224.848 364.798 225.433C364.917 224.834 364.917 224.182 364.904 223.397V223.33V223.264C364.93 221.187 364.93 218.911 364.864 216.116C364.718 210.738 364.359 205.267 363.947 199.876Z" fill="#2D1A0F"/>
<path d="M372.344 115.139C375.253 117.788 375.439 120.504 375.492 123.219C375.718 127.292 376.024 135.412 376.117 139.485C376.369 152.982 376.09 166.719 376.343 180.19C376.542 199.184 378.136 218.205 379 237.12C378.893 237.799 378.84 238.478 378.601 239.17C378.243 240.168 375.36 240.98 375.027 242.298C375.027 243.31 375.067 244.401 375.081 245.346C375.054 244.534 375.054 243.057 375.001 242.298C374.602 240.994 371.693 240.302 371.294 239.317C371.028 238.638 370.949 237.972 370.816 237.293C370.882 218.352 371.693 199.277 371.082 180.296C370.763 166.825 369.912 153.102 369.594 139.618C369.514 135.598 369.474 127.372 369.527 123.339C369.461 120.623 369.54 117.908 372.33 115.139H372.344Z" fill="#FFB54A"/>
<path d="M371.759 245.453C371.759 245.147 371.746 244.761 371.733 244.361C371.733 244.335 371.733 244.308 371.733 244.282C371.733 244.082 371.733 243.895 371.719 243.696C371.587 243.616 371.44 243.536 371.321 243.483C370.218 242.871 368.836 242.125 368.212 240.581C367.867 239.716 367.734 238.944 367.614 238.332L367.481 237.613V237.28C367.508 230.798 367.614 224.195 367.734 217.819C367.946 205.534 368.159 192.835 367.76 180.416C367.601 173.72 367.309 166.852 367.016 160.21C366.724 153.475 366.432 146.513 366.272 139.711C366.193 135.625 366.153 127.345 366.206 123.312C366.153 120.916 366.06 116.71 369.992 112.797L372.238 110.574L374.576 112.703C378.362 116.151 378.747 119.771 378.814 123.166C379.04 127.146 379.345 135.252 379.438 139.432C379.571 146.26 379.558 153.222 379.558 159.97C379.558 166.612 379.545 173.481 379.664 180.15C379.784 192.609 380.541 205.294 381.258 217.553C381.63 223.929 382.029 230.505 382.321 236.987V237.32L382.228 238.052C382.135 238.664 382.029 239.436 381.75 240.262C381.179 241.872 379.824 242.684 378.747 243.336C378.641 243.403 378.495 243.483 378.362 243.563C378.362 243.776 378.362 243.989 378.362 244.188V244.215C378.362 244.601 378.375 244.96 378.389 245.32L371.746 245.453H371.759ZM374.23 237.48C374.337 237.533 374.443 237.586 374.523 237.639C374.655 237.706 374.788 237.786 374.921 237.866C375.054 237.786 375.187 237.706 375.306 237.626C375.399 237.573 375.492 237.52 375.599 237.453C375.612 237.347 375.625 237.227 375.652 237.12L375.678 236.974C375.386 230.638 375.001 224.195 374.642 217.939C374.576 216.834 374.509 215.716 374.443 214.598C374.43 215.716 374.403 216.834 374.39 217.939C374.283 224.195 374.177 230.664 374.151 237L374.177 237.147C374.204 237.267 374.217 237.386 374.244 237.493L374.23 237.48Z" fill="#2D1A0F"/>
<path d="M219.227 124.071C219.227 127.718 213.966 131.072 209.183 131.072C202.673 131.072 198.847 124.457 203.536 116.124C204.493 114.5 204.4 114.207 204.108 114.021C203.536 113.835 203.151 114.114 202.58 115.459C200.76 118.999 197.026 131.086 185.548 131.086C175.304 131.086 168.901 121.595 168.901 106.833C168.901 90.8335 176.46 80.664 188.125 80.664C195.871 80.664 198.647 85.1631 199.604 89.955C200.082 91.6854 200.374 91.965 200.853 91.965C201.331 91.965 201.517 91.6721 201.424 90.5274C200.082 84.4843 203.815 80.6507 209.076 80.6507C213.952 80.6507 219.213 84.0051 219.213 87.5457C219.213 91.0864 214.617 95.1197 214.617 105.369C214.617 115.618 219.213 120.61 219.213 124.058L219.227 124.071ZM190.995 112.863C195.113 112.863 197.691 109.03 197.691 104.331C197.691 99.632 195.007 95.7985 190.809 95.7985C186.61 95.7985 183.927 100.018 183.927 104.331C183.927 109.03 186.796 112.863 191.008 112.863H190.995Z" fill="#FFD44D"/>
<path d="M240.258 131.072C227.145 131.072 219.878 121.582 219.878 106.913C219.878 89.8485 229.829 80.6507 241.4 80.6507C249.717 80.6507 255.935 85.3495 257.569 92.1513C258.433 95.7985 258.233 101.642 253.079 104.131C247.246 106.82 238.823 103.838 242.37 97.9948C243.712 95.8917 243.141 94.7336 241.028 94.7336C237.773 94.7336 234.997 97.316 234.997 102.973C234.997 109.016 238.159 112.85 242.835 112.85C245.705 112.85 249.824 111.319 250.966 108.151C251.63 106.141 253.451 105.09 255.656 105.755C258.047 106.421 259.868 108.63 259.868 113.236C259.868 121.954 253.265 131.059 240.258 131.059V131.072Z" fill="#FFD44D"/>
<path d="M71.1848 203.47C71.1848 196.762 74.0545 189.387 74.0545 173.082C74.0545 162.632 72.9119 156.11 72.6196 154.779C70.9988 145.288 66.6942 141.175 63.147 143.664C60.2773 145.581 59.4137 150.466 64.0105 156.989C70.9988 166.865 68.0228 176.729 58.2711 176.835C51.4822 176.928 44.4939 172.23 44.4939 159.291C44.4939 135.811 68.2221 134.946 76.4459 134.946H91.0867C120.076 134.946 131.741 149.135 131.741 175.291C131.741 205.48 116.343 215.543 90.7944 215.543H83.3279C75.5823 215.543 71.1848 211.523 71.1848 203.47ZM111.547 174.426C111.547 157.841 108.199 146.34 99.6825 146.34C89.7316 146.34 90.1168 169.434 90.1168 176.343C90.1168 187.843 91.5517 199.637 100.453 199.637C109.354 199.637 111.547 188.802 111.547 174.426Z" fill="#FFD44D"/>
<path d="M157.648 155.072C170.376 155.072 180.606 165.335 180.606 181.334C180.606 196.096 171.903 205.494 157.834 205.494C143.764 205.494 134.677 196.096 134.677 181.055C134.677 166.013 144.907 155.085 157.635 155.085L157.648 155.072ZM157.741 187.271C162.524 187.271 165.486 183.437 165.486 178.739C165.486 174.04 162.431 170.206 157.542 170.206C152.652 170.206 149.703 174.426 149.703 178.739C149.703 183.437 152.958 187.271 157.741 187.271Z" fill="#FFD44D"/>
<path d="M210.644 193.021C211.694 201.168 203.749 205.48 196.867 205.48C189.985 205.48 183.661 201.46 183.661 191.877C183.661 186.699 185.574 179.324 185.574 170.22C185.574 157.574 182.705 151.145 182.705 145.009C182.705 137.342 187.301 134.946 193.413 134.946C199.524 134.946 203.656 137.342 203.656 144.823C203.656 151.145 200.693 157.761 200.693 170.22C200.693 201.94 209.502 183.93 210.644 193.035V193.021Z" fill="#FFD44D"/>
<path d="M241.64 193.021C242.689 201.168 234.758 205.48 227.862 205.48C220.967 205.48 214.657 201.46 214.657 191.877C214.657 186.699 216.57 179.324 216.57 170.22C216.57 157.574 213.7 151.145 213.7 145.009C213.7 137.342 218.297 134.946 224.408 134.946C230.52 134.946 234.651 137.342 234.651 144.823C234.651 151.145 231.689 157.761 231.689 170.22C231.689 201.94 240.484 183.93 241.64 193.035V193.021Z" fill="#FFD44D"/>
<path d="M294.729 198.492C294.729 202.139 289.468 205.494 284.685 205.494C278.175 205.494 274.349 198.878 279.039 190.545C279.996 188.921 279.903 188.629 279.61 188.442C279.039 188.256 278.654 188.535 278.082 189.88C276.262 193.421 272.529 205.507 261.05 205.507C250.807 205.507 244.403 196.016 244.403 181.254C244.403 165.241 251.963 155.085 263.628 155.085C271.373 155.085 274.15 159.584 275.106 164.376C275.585 166.107 275.877 166.386 276.355 166.386C276.834 166.386 277.02 166.093 276.927 164.949C275.585 158.905 279.318 155.072 284.579 155.072C289.455 155.072 294.716 158.426 294.716 161.967C294.716 165.508 290.119 169.541 290.119 179.79C290.119 190.04 294.716 195.031 294.716 198.479L294.729 198.492ZM266.511 187.271C270.629 187.271 273.207 183.437 273.207 178.739C273.207 174.04 270.523 170.206 266.325 170.206C262.126 170.206 259.443 174.426 259.443 178.739C259.443 183.437 262.312 187.271 266.524 187.271H266.511Z" fill="#FFD44D"/>
<path d="M325.432 171.844C325.911 169.541 324.09 169.448 323.426 169.448C319.985 169.448 317.594 173.574 317.594 179.897V180.669C317.594 194.658 321.42 192.169 322.377 196.003C323.426 200.502 318.165 205.494 311.376 205.494C305.823 205.494 300.947 202.046 300.947 194.179C300.947 189.68 302.568 185.168 302.568 180.669V179.897C302.568 177.687 302.382 175.105 301.704 172.416C300.362 166.573 297.692 164.656 297.692 161.395C297.692 157.854 301.04 155.072 306.208 155.072C310.606 155.072 314.246 157.175 314.91 160.343C315.481 162.832 314.525 167.052 312.705 170.02C311.934 171.271 311.748 172.03 312.519 172.03C312.811 172.03 313.09 171.844 314.047 170.02C318.643 160.729 325.618 155.072 332.514 155.072C340.458 155.072 341.986 162.553 341.986 166.28C341.986 172.323 338.16 177.301 332.328 177.594C327.837 177.887 324.861 175.105 325.446 171.844H325.432Z" fill="#FFD44D"/>
<path d="M369.528 148.936C364.838 148.936 361.397 151.145 361.397 154.114C361.397 164.27 398.995 161.208 398.995 189.294C398.995 207.024 383.982 217.567 366.857 217.567C351.167 217.567 340.073 208.755 340.073 195.045C340.073 182.972 348.589 174.918 361.795 174.918C367.721 174.918 371.653 176.542 373.938 178.659C379.771 184.116 376.994 194.672 369.249 194.286C364.373 194.099 365.515 190.066 362.46 190.066C361.211 190.066 360.161 190.838 360.161 192.941C360.161 196.868 363.416 199.464 368.199 199.464C374.895 199.464 381.206 194.672 381.206 186.818C381.206 167.944 344.285 175.225 344.285 153.554C344.285 143.105 352.987 134.866 369.926 134.866C385.523 134.866 395.567 141.761 395.567 152.024C395.567 160.649 388.579 164.296 381.883 163.431C377.393 162.952 376.436 160.742 378.057 157.588C381.312 151.358 374.51 148.962 369.541 148.962L369.528 148.936Z" fill="#FFD44D"/>
<path d="M6.85552 113.569C6.52338 115.791 6.32409 118.44 5.28781 122.62C4.15853 127.146 3.33482 128.344 3.32153 131.272C3.32153 132.816 3.32153 136.663 5.67309 139.525C9.18051 143.771 16.7533 144.476 21.762 141.495C27.9266 137.821 28.2853 129.701 28.4314 126.161C28.6573 121.076 27.2889 118.573 26.226 113.821C25.2296 109.309 25.0436 105.183 26.8637 89.9683C28.8964 73.0236 29.9061 64.5578 31.5801 58.5014C32.0186 56.9041 42.2087 20.938 53.9532 21.537C59.5863 21.8299 63.6384 30.4154 66.1228 35.6998C67.6906 39.0142 68.6205 42.0757 71.2245 60.8707C72.872 72.7307 72.0748 68.4846 73.9747 82.9002C75.6354 95.4657 76.1402 97.9549 75.5424 102.96C75.5424 102.96 75.0375 107.272 73.1908 116.337C73.1908 116.337 72.5531 120.304 73.1908 122.633C74.3467 126.826 80.4182 128.53 81.8265 128.929C82.7963 129.196 91.4054 131.618 95.5639 126.959C98.0616 124.164 97.7029 120.237 97.1316 113.981C96.6931 109.203 95.8163 107.539 95.1653 103.758C94.0891 97.4491 94.966 92.6172 95.9491 86.8403C101.396 55.0539 100.599 52.5647 104.585 43.1805C108.145 34.7814 112.742 23.9463 119.106 23.9064C124.566 23.8797 128.632 31.813 132.843 40.0259C139.048 52.1521 140.974 62.5612 143.445 76.6042C146.01 91.1663 147.285 98.4474 145.797 105.316C145.571 106.354 143.99 113.475 142.263 123.019C140.828 130.966 140.629 133.189 141.864 135.598C144.375 140.523 151.55 143.811 157.953 141.894C158.671 141.681 163.733 140.057 166.19 134.813C168.476 129.941 167.559 123.951 163.839 119.479C163.693 114.527 163.387 107.951 162.656 100.204C162.138 94.6005 161.594 90.4209 161.474 89.5823C160.504 82.2347 158.897 70.4146 154.805 56.944C151.815 47.1073 148.534 39.8395 147.351 37.2838C139.951 21.3107 132.153 4.48577 119.877 3.46084C114.483 3.00826 110.218 5.77693 107.707 7.38755C105.236 8.98486 98.3406 14.0563 91.6313 37.7896C87.805 51.3002 87.3002 59.3267 85.7192 59.3C83.1551 59.2601 83.8459 38.0558 72.3671 17.2243C69.7764 12.5256 65.8704 6.54896 59.015 4.24618C59.015 4.24618 53.8203 2.48914 48.0278 3.84685C22.1207 9.91662 9.71193 94.1613 6.85552 113.569Z" fill="#FFD44D"/>
<path d="M361.118 114.46C364.04 116.79 364.266 119.199 364.333 121.622C364.598 125.255 364.97 132.51 365.103 136.144C365.489 148.19 365.342 160.463 365.675 172.496C365.861 187.045 367.774 201.514 368.172 216.049C368.225 218.472 368.252 220.894 368.212 223.317C368.279 225.739 368.172 228.162 364.97 230.704C361.609 228.388 361.33 225.979 361.237 223.556C361.038 221.134 360.905 218.725 360.799 216.302C360.227 201.767 361.184 187.204 360.4 172.682C359.948 160.662 358.979 148.416 358.567 136.383C358.447 132.776 358.354 125.455 358.381 121.848C358.301 119.425 358.354 117.003 361.118 114.487V114.46Z" fill="#FFD44D"/>
<path d="M372.344 115.139C375.253 117.788 375.439 120.504 375.493 123.219C375.718 127.292 376.024 135.412 376.117 139.485C376.369 152.982 376.09 166.719 376.343 180.19C376.542 199.184 378.136 218.205 379 237.12C378.894 237.799 378.841 238.478 378.601 239.17C378.243 240.168 375.36 240.98 375.028 242.298C375.028 243.31 375.067 244.401 375.081 245.346C375.054 244.534 375.054 243.057 375.001 242.298C374.602 240.994 371.693 240.302 371.294 239.317C371.029 238.638 370.949 237.972 370.816 237.293C370.882 218.352 371.693 199.277 371.082 180.296C370.763 166.825 369.913 153.102 369.594 139.618C369.514 135.598 369.474 127.372 369.527 123.339C369.461 120.623 369.541 117.908 372.331 115.139H372.344Z" fill="#FFD44D"/>
</g>
<defs>
<clipPath id="clip0_12_50">
<rect width="405" height="261" fill="white"/>
</clipPath>
</defs>
</svg>
