<?xml version="1.0" encoding="UTF-8"?>
<svg id="Calque_2" data-name="Calque 2" xmlns="http://www.w3.org/2000/svg" viewBox="0 0 266.85 259.53">
  <defs>
    <style>
      .cls-1 {
        fill: #fff;
        stroke-width: 0px;
      }
    </style>
  </defs>
  <g id="Calque_2-2" data-name="Calque 2">
    <g id="Calque_1-2" data-name="Calque 1-2">
      <path class="cls-1" d="M208.68,250.32l-61.85-21c-3.96-1.34-8.29-1.1-12.06.69l-59.03,27.95c-10.76,5.1-23.14-2.85-22.98-14.76l.86-65.31c.06-4.18-1.52-8.22-4.39-11.26L4.4,119.12C-3.77,110.46-.04,96.23,11.34,92.7l62.38-19.36c3.99-1.24,7.35-3.98,9.35-7.65l31.33-57.31c5.71-10.45,20.4-11.29,27.27-1.57l37.69,53.35c2.41,3.41,6.06,5.76,10.17,6.53l64.19,12.09c11.7,2.2,17.04,15.91,9.92,25.45l-39.09,52.33c-2.5,3.35-3.6,7.54-3.07,11.69l8.34,64.78c1.52,11.81-9.86,21.13-21.14,17.3h0Z"/>
    </g>
  </g>
</svg>