{
  "accessors": [
    {
      "bufferView": 0,
      "componentType": 5125,
      "count": 43716,
      "type": "SCALAR"
    },
    {
      "bufferView": 1,
      "componentType": 5126,
      "count": 8312,
      "max": [
        0.030566110359300278,
        0.02942069816414032,
        0.012836682223043155
      ],
      "min": [
        -0.030566110359300278,
        -0.02942069816414028,
        -0.012836682223043154
      ],
      "type": "VEC3"
    },
    {
      "bufferView": 2,
      "componentType": 5126,
      "count": 8312,
      "max": [
        0.9999987864729045,
        0.9999999703326402,
        0.9999980946330062
      ],
      "min": [
        -0.9999998931743765,
        -0.9999989226192526,
        -0.9999980946330062
      ],
      "type": "VEC3"
    },
    {
      "bufferView": 3,
      "componentType": 5126,
      "count": 8312,
      "max": [
        0.9484622266182032,
        1.0
      ],
      "min": [
        0.0,
        0.0
      ],
      "type": "VEC2"
    }
  ],
  "asset": {
    "generator": "Adobe Illustrator",
    "version": "2.0"
  },
  "bufferViews": [
    {
      "buffer": 0,
      "byteLength": 174864,
      "target": 34963
    },
    {
      "buffer": 0,
      "byteLength": 99744,
      "byteOffset": 174864,
      "target": 34962
    },
    {
      "buffer": 0,
      "byteLength": 99744,
      "byteOffset": 274608,
      "target": 34962
    },
    {
      "buffer": 0,
      "byteLength": 66496,
      "byteOffset": 374352,
      "target": 34962
    }
  ],
  "buffers": [
    {
      "byteLength": 440848,
      "uri": "data:application/octet-stream;base64,"
    }
  ],
  "materials": [
    {
      "doubleSided": true,
      "pbrMetallicRoughness": {
        "baseColorFactor": [
          0.1132812574505806,
          0.1132812574505806,
          0.1054687574505806,
          1.0
        ],
        "metallicFactor": 0.0,
        "roughnessFactor": 0.4000000059604645
      }
    }
  ],
  "meshes": [
    {
      "primitives": [
        {
          "attributes": {
            "NORMAL": 2,
            "POSITION": 1,
            "TEXCOORD_0": 3
          },
          "indices": 0,
          "material": 0,
          "mode": 4
        }
      ]
    }
  ],
  "nodes": [
    {
      "mesh": 0
    }
  ],
  "scenes": [
    {
      "nodes": [
        0
      ]
    }
  ]
}
